<svg width="151" height="151" xmlns="http://www.w3.org/2000/svg" xmlns:xlink="http://www.w3.org/1999/xlink" overflow="hidden"><defs><clipPath id="clip0"><rect x="0" y="0" width="151" height="151"/></clipPath></defs><g clip-path="url(#clip0)"><rect x="0" y="0" width="151" height="151" fill="#FFFFFF"/><path d="M36.6332 37.8386 36.6332 125.542 106.58 125.542 106.58 115.713C106.58 112.359 105.477 109.579 103.271 107.376 101.064 105.172 98.2813 104.07 94.9226 104.07L63.3467 104.07 63.3467 92.3682 86.6624 92.3682C90.3336 92.3682 93.1456 91.3833 95.0983 89.4136 97.0511 87.4438 98.0275 84.6257 98.0275 80.9592L98.0275 70.8958 63.3467 70.8958 63.3467 59.2527 95.1569 59.2527C98.828 59.2527 101.65 58.3165 103.622 56.4442 105.594 54.572 106.58 51.9196 106.58 48.4871L106.58 37.8386ZM77.2636 10.018C72.7895 9.69616 69.0292 11.6562 65.9829 15.898L54.2665 32.8069 65.28 32.8069C70.8648 32.8069 75.7857 31.0907 80.0426 27.6582L94.6883 15.898 81.9759 11.1004C80.3258 10.4861 78.7551 10.1252 77.2636 10.018ZM14.9721 0 135.028 0C143.849 0 151 7.142 151 15.952L151 136.048C151 144.858 143.849 152 135.028 152L14.9721 152C6.15099 152-1.00005 144.858-1.00005 136.048L-1.00005 15.952C-1.00005 7.142 6.15099 0 14.9721 0Z" fill="#991B1B" fill-rule="evenodd"/></g></svg>